<svg
    xmlns="http://www.w3.org/2000/svg"
    width="100"
    height="100"
    viewBox="0 0 100 100"
    fill="none"
    role="img"
    aria-label="PHP Quiz Icon"
>
    <circle cx="50" cy="50" r="48" fill="#8892BF" />
    <path
    d="M50 10C27.909 10 10 27.909 10 50s17.909 40 40 40 40-17.909 40-40S72.091 10 50 10z"
    fill="#4F5B93"
    />
    <path
    d="M63 35H37c-1.1 0-2 .9-2 2v26c0 1.1.9 2 2 2h26c1.1 0 2-.9 2-2V37c0-1.1-.9-2-2-2z"
    fill="white"
    />
    <path
    d="M42 48c0-1.1.9-2 2-2h12c1.1 0 2 .9 2 2s-.9 2-2 2H44c-1.1 0-2-.9-2-2z"
    fill="#4F5B93"
    />
    <path
    d="M42 55c0-1.1.9-2 2-2h12c1.1 0 2 .9 2 2s-.9 2-2 2H44c-1.1 0-2-.9-2-2z"
    fill="#4F5B93"
    />
    <path
    d="M26 36.5c0-1.381 1.119-2.5 2.5-2.5S31 35.119 31 36.5 29.881 39 28.5 39 26 37.881 26 36.5zM69 36.5c0-1.381 1.119-2.5 2.5-2.5S74 35.119 74 36.5 72.881 39 71.5 39 69 37.881 69 36.5z"
    fill="white"
    />
    <path
    d="M30 65.5l5-2.5-5-2.5v5zM70 65.5l-5-2.5 5-2.5v5z"
    fill="white"
    />
    <path
    d="M39.5 75c0-1.381 1.119-2.5 2.5-2.5s2.5 1.119 2.5 2.5-1.119 2.5-2.5 2.5-2.5-1.119-2.5-2.5zM55.5 75c0-1.381 1.119-2.5 2.5-2.5s2.5 1.119 2.5 2.5-1.119 2.5-2.5 2.5-2.5-1.119-2.5-2.5z"
    fill="white"
    />
    <path
    d="M31 28v-3h38v3H31z"
    fill="#8892BF"
    />
    <path
    d="M35 25l-2 6h4l-2-6zM65 25l-2 6h4l-2-6z"
    fill="#8892BF"
    />
</svg>